<?xml version="1.0" encoding="UTF-8"?>
<svg id="Layer_1" data-name="Layer 1" xmlns="http://www.w3.org/2000/svg" viewBox="0 0 97.95 94.4">
  <defs>
    <style>
      .cls-1 {
        fill: #fff;
      }
    </style>
  </defs>
  <path class="cls-1" d="M47.2,89.37c-1.64,0-3.26-.1-4.85-.29.95-1.01,1.92-2.03,2.91-3.07,9.55-10.02,19.41-20.38,24.37-37.98,1.62-5.73,2.02-11.35,1.2-16.69-.95-6.18-3.24-10.34-7.01-12.73-.99-.62-2.62-1.37-4.8-1.37h0c-1.06,0-2.14.18-3.22.53-1.69.56-3.22,1.65-4.41,3.16-1.63,2.07-2.58,4.37-3.12,6.62-.1-.11-.2-.22-.31-.33-2.38-2.47-5.96-3.13-7.71-3.13h-.06c-5.05.08-8.88,2.84-10.5,7.59-1.06,3.09-1.02,7.49,2.06,11-1.92.39-3.59,1.16-4.97,2.3-4.1,3.38-4.83,9.82-1.62,14.35,2.2,3.1,5.49,4.65,10.07,4.74.1,0,.2,0,.3,0,1.99,0,4.01-.38,5.8-.72,1.03-.19,2.09-.4,3.05-.51l2.5-.29-.29-2.5-.19-1.67-.29-2.5-2.5.29c-1.2.14-2.39.36-3.53.58l-.16.03c-1.49.28-3.03.58-4.33.58-.07,0-.14,0-.21,0-3.02-.06-4.07-.95-4.75-1.91-1.16-1.63-.96-4.15.42-5.28.6-.49,1.35-.8,2.36-.96.38-.06.82-.09,1.3-.09,1.39,0,3,.26,4.55.51.55.09,1.1.18,1.63.25h.03s.03,0,.03,0l.66.08,1.85.23.76-1.7.52-1.17.75-1.69-1.38-1.22-.47-.42c-.98-.87-2.05-1.71-3.07-2.52-1.22-.96-2.46-1.94-3.45-2.89-1.93-1.84-1.23-4.25-1.07-4.72.7-2.05,2.05-3.02,4.24-3.05h0c.68,0,2.16.36,2.85,1.08,2.43,2.52,3.77,6.02,5.06,9.41l.29.73.82,2.04,2.13-.53,1.44-.36,2.11-.53-.22-2.17-.07-.73c-.55-5.46-.86-11.09,1.97-14.66.37-.47.8-.8,1.24-.95.39-.13.76-.19,1.11-.19.61,0,1.02.2,1.21.33,2.03,1.28,3.33,3.92,3.96,8.07.67,4.38.33,9.04-1.03,13.84-4.51,16-13.79,25.74-22.76,35.17-1.91,2-3.85,4.05-5.71,6.11-17.17-5.34-29.66-21.37-29.66-40.27C5.04,23.95,23.95,5.04,47.2,5.04c8.45,0,16.6,2.49,23.57,7.2l2.82-4.17C65.79,2.79,56.66,0,47.2,0,21.17,0,0,21.17,0,47.2s21.17,47.2,47.2,47.2,47.2-21.17,47.2-47.2h-5.04c0,23.25-18.92,42.17-42.17,42.17ZM58.67,19.78c.12,0,.24-.01.35-.01s.21,0,.31.01c-.21-.01-.44-.01-.67,0ZM39.3,86.2c-.63.67-1.24,1.34-1.85,2.01h0c.62-.67,1.23-1.35,1.85-2.01Z"/>
  <path class="cls-1" d="M97.86,21.85l-2.1.03c-1.85.03-3.76.05-5.69.07-.02-1.93-.05-3.86-.08-5.8l-.03-2.1-5.87.09.03,2.1c.03,1.93.05,3.84.08,5.76-1.93,0-3.89.01-5.87,0h-2.1s-.03,5.86-.03,5.86h2.1c1,.02,2,.02,2.99.02s1.98,0,2.97,0c0,1.92.01,3.84,0,5.81v2.1s5.86.03,5.86.03v-2.1c.02-1.99.02-3.95,0-5.89,1.95-.02,3.87-.05,5.73-.08l2.1-.03-.09-5.87Z"/>
</svg>